# AST/ASF file generated using VICON BodyLanguage
# -----------------------------------------------
:version 1.10
:name VICON
:units
  mass 1.0
  length 0.45
  angle deg
:documentation
   .ast/.asf automatically generated from VICON data using
   VICON BodyBuilder and BodyLanguage model FoxedUp or BRILLIANT.MOD
:root
   order TX TY TZ RX RY RZ
   axis XYZ
   position 0 0 0  
   orientation 0 0 0 
:bonedata
  begin
     id 1 
     name lhipjoint
     direction 0.653368 -0.678499 0.335782 
     length 2.51848 
     axis 0 0 0  XYZ
  end
  begin
     id 2 
     name lfemur
     direction 0.34202 -0.939693 0  
     length 6.57749  
     axis 0 0 20  XYZ
    dof rx ry rz
    limits (-160.0 20.0)
           (-70.0 70.0)
           (-60.0 70.0)
  end
  begin
     id 3 
     name ltibia
     direction 0.34202 -0.939693 0   
     length 7.94618   
     axis 0 0 20   XYZ
    dof rx
    limits (-10.0 170.0)
  end
  begin
     id 4 
     name lfoot
     direction 0.0811271 -0.222895 0.971461   
     length 2.31339   
     axis -90 7.62852e-016 20   XYZ
    dof rx rz
    limits (-45.0 90.0)
           (-70.0 20.0)
  end
  begin
     id 5 
     name ltoes
     direction 1.53568e-011 -4.21885e-011 1   
     length 1.15935   
     axis -90 7.62852e-016 20   XYZ
    dof rx
    limits (-90.0 20.0)
  end
  begin
     id 6 
     name rhipjoint
     direction -0.640058 -0.688614 0.340788   
     length 2.48149  
     axis 0 0 0  XYZ 
  end
  begin
     id 7 
     name rfemur
     direction -0.34202 -0.939693 0   
     length 6.57875   
     axis 0 0 -20   XYZ
    dof rx ry rz
    limits (-160.0 20.0)
           (-70.0 70.0)
           (-70.0 60.0)
  end
  begin
     id 8 
     name rtibia
     direction -0.34202 -0.939693 0   
     length 7.977   
     axis 0 0 -20   XYZ
    dof rx
    limits (-10.0 170.0)
 end
 begin
     id 9 
     name rfoot
     direction -0.0979793 -0.269196 0.958089   
     length 2.19857  
     axis -90 -7.62852e-016 -20   XYZ
    dof rx rz
    limits (-45.0 90.0)
           (-20.0 70.0)
  end
  begin
     id 10 
     name rtoes
     direction -1.53556e-011 -4.21868e-011 1   
     length 1.09838   
     axis -90 -7.62852e-016 -20   XYZ
    dof rx
    limits (-90.0 20.0)
  end
  begin
     id 11 
     name lowerback
     direction 0.0149039 0.998517 -0.0523597   
     length 2.10809   
     axis 0 0 0   XYZ
    dof rx ry rz
    limits (-20.0 45.0)
           (-30.0 30.0)
           (-30.0 30.0)
  end
  begin
     id 12 
     name upperback
     direction -0.00882659 0.999418 -0.0329624   
     length 2.1102   
     axis 0 0 0   XYZ
    dof rx ry rz
    limits (-20.0 45.0)
           (-30.0 30.0)
           (-30.0 30.0)
  end
  begin
     id 13 
     name thorax
     direction -0.0165585 0.999826 -0.0085833   
     length 2.11039   
     axis 0 0 0   XYZ
    dof rx ry rz
    limits (-20.0 45.0)
           (-30.0 30.0)
           (-30.0 30.0)
  end
  begin
     id 14 
     name lowerneck
     direction -0.0130877 0.999911 0.00260353   
     length 1.73253   
     axis 0 0 0   XYZ
    dof rx ry rz
    limits (-20.0 45.0)
           (-30.0 30.0)
           (-30.0 30.0)
  end
  begin
     id 15 
     name upperneck
     direction -0.0348454 0.928205 -0.370435   
     length 1.66692   
     axis 0 0 0   XYZ
    dof rx ry rz
    limits (-20.0 45.0)
           (-30.0 30.0)
           (-30.0 30.0)
  end
  begin
     id 16
     name head
     direction -0.00807754 0.992494 -0.122026  
     length 1.72765  
     axis 0 0 0   XYZ
    dof rx ry rz
    limits (-20.0 45.0)
           (-30.0 30.0)
           (-30.0 30.0)
  end
  begin
     id 17 
     name lclavicle
     direction 0.987582 0.144023 0.0627671  
     length 3.49235  
     axis 0 0 0   XYZ
    dof ry rz
    limits (-20.0 10.0)
           (0.0 20.0)
  end
  begin
     id 18 
     name lhumerus
     direction 1 -4.48958e-011 -1.45183e-018   
     length 5.41917   
     axis 180 -30 -90   XYZ
    dof rx ry rz
    limits (-60.0 90.0)
           (-90.0 90.0)
           (-90.0 90.0)
  end
  begin
     id 19
     name lradius
     direction 1 -4.48999e-011 5.75106e-027   
     length 2.44373   
     axis 180 -30 -90   XYZ
    dof rx
    limits (-10.0 170.0)
  end
  begin
     id 20
     name lwrist
     direction 1 -4.48987e-011 1.53461e-026   
     length 1.22186   
     axis -1.09697e-014 90 90   XYZ
    dof ry
    limits (-180.0 0.0)
 end
  begin
     id 21 
     name lhand
     direction 1 -4.48881e-011 3.06923e-026   
     length 0.727502   
     axis -1.95843e-014 90 90   XYZ
    dof rx rz
    limits (-90.0 90.0)
           (-45.0 45.0)
  end
  begin
     id 22 
     name lfingers
     direction 1 -4.48907e-011 6.13845e-026   
     length 0.586531   
     axis -3.91686e-014 90 90   XYZ
    dof rx
    limits (0.0 90.0)
  end
  begin
     id 23
     name lthumb
     direction 0.707107 -6.3487e-011 0.707107   
     length 0.842145   
     axis -90 45 2.85299e-015   XYZ
    dof rx rz
    limits (-45.0 45.0)
           (-45.0 45.0)
  end
  begin
     id 24 
     name rclavicle
     direction -0.980998 0.169556 0.0943023   
     length 3.29272  
     axis 0 0 0   XYZ 
    dof ry rz
    limits (-10.0 20.0)
           (-20.0 0.0)
  end
  begin
     id 25 
     name rhumerus
     direction -1 -1.83355e-005 2.45537e-005  
     length 5.58976   
     axis 180 30 90   XYZ
    dof rx ry rz
    limits (-90.0 60.0)
           (-90.0 90.0)
           (-90.0 90.0)
  end
  begin
     id 26 
     name rradius
     direction -1 -4.48967e-011 5.97228e-027   
     length 2.4806   
     axis 180 30 90   XYZ
    dof rx
    limits (-10.0 170.0)
  end
  begin
     id 27 
     name rwrist
     direction -1 -4.48963e-011 1.53461e-026   
     length 1.2403   
     axis -1.09697e-014 -90 -90   XYZ
    dof ry
    limits (-180.0 0.0)
  end
  begin
     id 28
     name rhand
     direction -1 -4.48881e-011 3.06923e-026   
     length 0.816009   
     axis -1.95843e-014 -90 -90   XYZ
    dof rx rz
    limits (-90.0 90.0)
           (-45.0 45.0)
  end
  begin
     id 29
     name rfingers
     direction -1 -4.49018e-011 6.13845e-026   
     length 0.657887   
     axis -3.91686e-014 -90 -90   XYZ
    dof rx
    limits (0.0 90.0)
  end
  begin
     id 30
     name rthumb
     direction -0.707107 -6.34872e-011 0.707107   
     length 0.944599   
     axis -90 -45 -2.85299e-015   XYZ
    dof rx rz
    limits (-45.0 45.0)
           (-45.0 45.0)
  end
:hierarchy
  begin
    root lhipjoint rhipjoint lowerback
    lhipjoint lfemur
    lfemur ltibia
    ltibia lfoot
    lfoot ltoes
    rhipjoint rfemur
    rfemur rtibia
    rtibia rfoot
    rfoot rtoes
    lowerback upperback
    upperback thorax
    thorax lowerneck lclavicle rclavicle
    lowerneck upperneck
    upperneck head
    lclavicle lhumerus
    lhumerus lradius
    lradius lwrist
    lwrist lhand lthumb
    lhand lfingers
    rclavicle rhumerus
    rhumerus rradius
    rradius rwrist
    rwrist rhand rthumb
    rhand rfingers
  end

#!OML:ASF F:\VICON\USERDATA\INSTALL\rory3\rory3.ASF
:FULLY-SPECIFIED
:DEGREES
103
root 1.9625 16.5589 14.782 22.6336 0.777537 0.985627
lowerback -16.2145 0.245296 -1.23501
upperback -6.5472 0.531734 -0.48865
thorax 2.12405 0.279599 0.279679
lowerneck -18.6741 -1.19816 -1.00477
upperneck 35.3981 -2.11332 1.77204
head 15.6639 -0.759595 0.541911
rclavicle 6.0474e-015 -1.61513e-015
rhumerus -50.7955 13.0124 -80.5532
rradius 47.6792
rwrist -20.6245
rhand 6.41568 1.94432
rfingers 7.12502
rthumb 31.7193 -25.3175
lclavicle 6.0474e-015 -1.61513e-015
lhumerus -55.2533 2.60048 69.3715
lradius 51.4989
lwrist 6.85521
lhand 12.9845 25.232
lfingers 7.12502
lthumb 37.9512 51.0445
rfemur -49.3575 2.15599 30.5652
rtibia 42.8825
rfoot -42.2835 -32.3043
rtoes 43.3357
lfemur -18.6796 8.13479 -28.7057
ltibia 44.9049
lfoot -11.1699 17.3928
ltoes 0.206915
104
root 1.95966 16.5468 14.7026 22.3946 0.427512 1.6064
lowerback -15.621 0.16246 -2.11889
upperback -6.56834 0.542351 -0.608434
thorax 1.77896 0.299359 0.650904
lowerneck -18.6691 -1.12052 -0.912768
upperneck 35.3945 -2.00928 1.71834
head 15.6567 -0.71123 0.522198
rclavicle 4.4711e-015 -2.23633e-016
rhumerus -50.0734 12.2554 -79.9064
rradius 46.9235
rwrist -19.103
rhand 3.63531 3.63732
rfingers 7.12502
rthumb 29.0675 -24.1148
lclavicle 4.4711e-015 -2.23633e-016
lhumerus -54.9579 3.15225 69.0427
lradius 51.5497
lwrist 6.51527
lhand 11.4258 24.8552
lfingers 7.12502
lthumb 36.4773 51.053
rfemur -49.5387 2.66084 29.6182
rtibia 42.9891
rfoot -42.1411 -32.9172
rtoes 43.3749
lfemur -18.2708 7.63902 -29.4956
ltibia 44.4794
lfoot -11.9736 17.1782
ltoes -0.997634
105
root 1.97164 16.5491 14.6516 22.4542 0.927245 1.21039
lowerback -15.6425 0.0330122 -1.60895
upperback -6.6794 0.292216 -0.418898
thorax 1.68268 0.170229 0.519326
lowerneck -18.545 -1.0281 -0.921674
upperneck 35.514 -1.91901 1.84234
head 15.686 -0.657205 0.594856
rclavicle 5.7896e-015 -8.19987e-016
rhumerus -49.5665 11.5717 -79.3457
rradius 46.2504
rwrist -17.5446
rhand 1.08549 4.88005
rfingers 7.12502
rthumb 26.6297 -23.2671
lclavicle 5.7896e-015 -8.19987e-016
lhumerus -54.9471 3.60402 68.7302
lradius 51.672
lwrist 6.505
lhand 9.71017 24.3886
lfingers 7.12502
lthumb 34.8514 50.9792
rfemur -49.8226 1.76735 30.4313
rtibia 42.9875
rfoot -40.9872 -33.2554
rtoes 42.1606
lfemur -18.1546 7.03737 -29.0162
ltibia 44.1298
lfoot -12.6094 16.5942
ltoes -4.61343
106
root 1.97966 16.5484 14.5894 22.4862 1.05799 1.16609
lowerback -15.5504 -0.0531259 -1.51537
upperback -6.78154 0.161167 -0.383982
thorax 1.52929 0.105162 0.480777
lowerneck -18.41 -0.981982 -0.953125
upperneck 35.6563 -1.90365 1.99824
head 15.7264 -0.633141 0.671537
rclavicle -8.4367e-015 1.2921e-014
rhumerus -49.067 10.5989 -78.7343
rradius 45.5104
rwrist -15.8454
rhand -1.2425 6.24033
rfingers 7.12502
rthumb 24.3998 -22.2261
lclavicle -8.4367e-015 1.2921e-014
lhumerus -54.7555 4.06661 68.3195
lradius 51.5444
lwrist 6.65779
lhand 8.0881 23.7743
lfingers 7.12502
lthumb 33.3108 50.7084
rfemur -50.1115 1.55047 30.5258
rtibia 42.971
rfoot -40.3017 -33.5508
rtoes 41.6345
lfemur -18.0943 6.58866 -29.0315
ltibia 43.7925
lfoot -13.0364 16.4989
ltoes -8.5716
107
root 1.98642 16.5432 14.5214 22.4956 1.15258 1.16145
lowerback -15.5555 -0.141811 -1.53127
upperback -6.67501 0.0460729 -0.332065
thorax 1.64645 0.0472212 0.525221
lowerneck -18.6581 -0.98121 -1.03989
upperneck 35.654 -1.91374 2.10868
head 15.7875 -0.632143 0.731623
rclavicle -2.98177e-016 -4.72114e-016
rhumerus -48.2916 9.46953 -77.9482
rradius 44.9631
rwrist -14.4445
rhand -3.52018 7.87263
rfingers 7.12502
rthumb 22.2147 -20.8708
lclavicle -2.98177e-016 -4.72114e-016
lhumerus -54.1568 4.94105 67.7901
lradius 51.3037
lwrist 6.72604
lhand 7.04148 23.3028
lfingers 7.12502
lthumb 32.3152 50.4451
rfemur -50.3483 1.513 30.5087
rtibia 42.8556
rfoot -39.6229 -33.9819
rtoes 41.1909
lfemur -18.0408 6.21092 -29.117
ltibia 43.5489
lfoot -13.3827 16.5378
ltoes -12.0173
108
root 1.98924 16.5325 14.4506 22.4503 1.23346 1.07148
lowerback -15.2489 -0.186385 -1.55626
upperback -6.72605 -0.0181777 -0.2497
thorax 1.43174 0.0184465 0.614799
lowerneck -18.7371 -0.942087 -1.01486
upperneck 35.6794 -1.84928 2.07004
head 15.8166 -0.606784 0.722767
rclavicle -2.65214e-015 -5.09386e-016
rhumerus -47.9566 8.31967 -77.15
rradius 44.7635
rwrist -13.5838
rhand -5.43757 9.12119
rfingers 7.12502
rthumb 20.3729 -19.8302
lclavicle -2.65214e-015 -5.09386e-016
lhumerus -53.8701 5.61509 67.3723
lradius 51.2914
lwrist 7.00827
lhand 5.99705 22.6004
lfingers 7.12502
lthumb 31.3205 49.9403
rfemur -50.4901 1.67303 30.5194
rtibia 42.7298
rfoot -39.4311 -34.1031
rtoes 41.5578
lfemur -17.8813 5.87504 -29.0978
ltibia 43.3142
lfoot -14.3785 16.1751
ltoes -12.1128
109
root 1.98697 16.5237 14.3733 22.3917 1.1728 1.07455
lowerback -14.2978 -0.196019 -1.71088
upperback -7.26752 -0.0357883 -0.265404
thorax 0.357174 0.0237816 0.682592
lowerneck -18.0436 -0.883184 -0.783198
upperneck 35.6819 -1.79092 1.92223
head 15.6461 -0.576531 0.630809
rclavicle -8.3047e-016 5.26779e-015
rhumerus -48.3921 7.38254 -76.6273
rradius 44.4765
rwrist -13.1249
rhand -7.43497 10.7657
rfingers 7.12502
rthumb 18.4524 -18.3791
lclavicle -8.3047e-016 5.26779e-015
lhumerus -54.4593 5.65391 66.9819
lradius 51.7247
lwrist 7.30434
lhand 4.78521 22.3672
lfingers 7.12502
lthumb 30.1651 49.9244
rfemur -50.6361 2.46273 30.1226
rtibia 42.5907
rfoot -40.7633 -33.6026
rtoes 43.5172
lfemur -17.8601 5.56855 -29.1947
ltibia 43.0942
lfoot -15.0227 16.1576
ltoes -13.5524
110
root 1.98062 16.5226 14.2987 22.2625 1.09078 1.03052
lowerback -14.357 -0.240522 -1.94205
upperback -6.9189 -0.0621178 -0.187703
thorax 0.755889 0.0116538 0.890249
lowerneck -18.3233 -0.888101 -0.865833
upperneck 35.4875 -1.82048 2.06942
head 15.6211 -0.578489 0.700341
rclavicle 1.76344e-015 -2.75814e-015
rhumerus -47.3125 6.3482 -75.9475
rradius 43.9182
rwrist -13.2148
rhand -9.04553 12.3197
rfingers 7.12502
rthumb 16.9026 -16.9648
lclavicle 1.76344e-015 -2.75814e-015
lhumerus -53.7389 6.28596 66.8096
lradius 51.8609
lwrist 7.38375
lhand 3.69727 22.3496
lfingers 7.12502
lthumb 29.1266 50.0915
rfemur -50.7123 3.48784 29.6735
rtibia 42.4766
rfoot -43.2684 -32.3248
rtoes 46.4546
lfemur -17.8074 5.28083 -29.1831
ltibia 42.8259
lfoot -15.5087 16.2813
ltoes -16.4053
111
root 1.98105 16.5184 14.2321 22.1866 1.22729 0.884878
lowerback -14.29 -0.293443 -1.87024
upperback -6.78509 -0.142636 -0.119928
thorax 0.863732 -0.0310816 0.90866
lowerneck -18.5151 -0.903657 -1.02537
upperneck 35.5337 -1.87559 2.30008
head 15.6961 -0.58879 0.817067
rclavicle 1.16864e-015 3.926e-015
rhumerus -46.6996 5.2355 -75.282
rradius 43.4368
rwrist -13.3748
rhand -10.4445 13.5083
rfingers 7.12502
rthumb 15.5556 -15.886
lclavicle 1.16864e-015 3.926e-015
lhumerus -53.2509 6.81191 66.5661
lradius 51.7591
lwrist 7.47239
lhand 2.56373 21.8902
lfingers 7.12502
lthumb 28.0436 49.8144
rfemur -50.843 3.51797 29.8118
rtibia 42.4301
rfoot -44.0113 -31.5409
rtoes 47.4045
lfemur -17.6125 4.8326 -29.0041
ltibia 42.4742
lfoot -16.5251 15.9099
ltoes -16.7491
112
root 1.99359 16.514 14.1647 22.141 1.48197 0.958931
lowerback -13.9828 -0.383816 -1.84963
upperback -6.84232 -0.272074 -0.110112
thorax 0.643919 -0.0938325 0.889227
lowerneck -18.5145 -0.909504 -1.06905
upperneck 35.5512 -1.87131 2.30615
head 15.705 -0.592141 0.828351
rclavicle -8.59588e-016 1.36664e-015
rhumerus -46.4862 4.15656 -74.5651
rradius 43.3375
rwrist -13.7051
rhand -11.5218 14.5233
rfingers 7.12502
rthumb 14.5178 -14.9488
lclavicle -8.59588e-016 1.36664e-015
lhumerus -53.0205 7.0889 66.519
lradius 51.654
lwrist 7.7657
lhand 1.00748 21.2695
lfingers 7.12502
lthumb 26.555 49.4281
rfemur -51.0553 3.03469 29.8631
rtibia 42.4435
rfoot -43.5859 -31.4755
rtoes 47.2728
lfemur -17.3705 4.24727 -29.0708
ltibia 42.064
lfoot -17.3923 15.5374
ltoes -16.9828
113
root 2.017 16.5187 14.0903 22.008 1.90032 1.10549
lowerback -13.5755 -0.460668 -1.67443
upperback -6.79887 -0.401407 -0.170229
thorax 0.475383 -0.162351 0.711431
lowerneck -18.6424 -1.00931 -1.19365
upperneck 35.4395 -1.97459 2.31283
head 15.6848 -0.651046 0.832434
rclavicle -6.08778e-016 -2.48481e-015
rhumerus -46.0575 2.79347 -73.6787
rradius 43.4025
rwrist -13.966
rhand -11.7575 14.6949
rfingers 7.12502
rthumb 14.2906 -14.7934
lclavicle -6.08778e-016 -2.48481e-015
lhumerus -52.6182 7.25874 66.6894
lradius 51.6459
lwrist 8.39196
lhand -0.782829 20.8743
lfingers 7.12502
lthumb 24.8404 49.2807
rfemur -51.2371 1.84918 30.1045
rtibia 42.478
rfoot -42.2158 -31.5749
rtoes 46.5971
lfemur -17.0768 3.50529 -29.2209
ltibia 41.6458
lfoot -17.861 15.5837
ltoes -18.4125
114
root 2.00775 16.5111 14.0127 22.0327 1.63324 1.25977
lowerback -13.6064 -0.448335 -2.15679
upperback -6.52318 -0.323423 -0.192907
thorax 0.780178 -0.117676 0.96953
lowerneck -19.0866 -1.08298 -1.39923
upperneck 35.1854 -2.08947 2.54804
head 15.6755 -0.690914 0.944027
rclavicle -4.05956e-015 1.09332e-014
rhumerus -45.2264 1.57428 -73.0703
rradius 43.4065
rwrist -14.5761
rhand -12.0076 14.8904
rfingers 7.12502
rthumb 14.0496 -14.6147
lclavicle -4.05956e-015 1.09332e-014
lhumerus -51.8152 7.65949 66.7943
lradius 51.8302
lwrist 8.91371
lhand -2.18074 20.5284
lfingers 7.12502
lthumb 23.5 49.113
rfemur -51.5692 3.29803 29.24
rtibia 42.4699
rfoot -42.853 -32.4816
rtoes 46.7431
lfemur -17.1195 3.34418 -29.5076
ltibia 41.2946
lfoot -18.0535 15.8355
ltoes -20.5746
115
root 2.00552 16.5043 13.9332 21.957 1.65339 1.29251
lowerback -13.5255 -0.528208 -2.29984
upperback -6.23597 -0.409857 -0.218312
thorax 1.04142 -0.163599 1.01119
lowerneck -19.425 -1.08716 -1.52145
upperneck 34.992 -2.16747 2.87277
head 15.671 -0.691599 1.0867
rclavicle -5.59082e-017 6.70898e-015
rhumerus -44.4004 0.628256 -72.7157
rradius 43.2394
rwrist -15.1553
rhand -12.7161 15.0315
rfingers 7.12502
rthumb 13.3668 -14.5197
lclavicle -5.59082e-017 6.70898e-015
lhumerus -51.1265 8.06557 66.6728
lradius 52.0644
lwrist 9.30864
lhand -3.0139 19.9697
lfingers 7.12502
lthumb 22.7006 48.6544
rfemur -51.7647 3.82319 28.9042
rtibia 42.3778
rfoot -43.3007 -32.5635
rtoes 47.4013
lfemur -17.0473 2.89867 -29.5669
ltibia 41.025
lfoot -18.7313 15.757
ltoes -20.9349
116
root 2.01073 16.5044 13.8637 22.0135 1.85708 1.21803
lowerback -13.5318 -0.641978 -2.21746
upperback -6.21724 -0.570791 -0.180623
thorax 1.06982 -0.245607 0.981093
lowerneck -19.2903 -1.04258 -1.36845
upperneck 34.8371 -2.11512 2.76655
head 15.5583 -0.666883 1.0219
rclavicle -1.04145e-014 1.04362e-014
rhumerus -43.9075 -0.262337 -72.1574
rradius 42.8105
rwrist -15.1691
rhand -13.3468 14.0976
rfingers 7.12502
rthumb 12.7588 -15.4926
lclavicle -1.04145e-014 1.04362e-014
lhumerus -51.0724 8.12803 66.6367
lradius 52.5523
lwrist 9.84803
lhand -4.0319 19.7078
lfingers 7.12502
lthumb 21.7233 48.5089
rfemur -52.0721 3.91002 28.8605
rtibia 42.2805
rfoot -43.405 -32.6045
rtoes 47.7389
lfemur -17.0802 2.3249 -29.4893
ltibia 40.789
lfoot -19.6341 15.5344
ltoes -20.7606
